<mxfile host="app.diagrams.net" agent="Mozilla/5.0 (Windows NT 10.0; Win64; x64) AppleWebKit/537.36 (KHTML, like Gecko) Chrome/130.0.0.0 Safari/537.36" version="24.8.3">
  <diagram name="Pagina-1" id="73n_Q4G-RUECxQ1nL1F7">
    <mxGraphModel dx="592" dy="310" grid="1" gridSize="10" guides="1" tooltips="1" connect="1" arrows="1" fold="1" page="1" pageScale="1" pageWidth="827" pageHeight="1169" math="1" shadow="0">
      <root>
        <mxCell id="0" />
        <mxCell id="1" parent="0" />
        <mxCell id="Op6EEN8iHbsJCU0QRmLk-1" value="\(u_1\)" style="whiteSpace=wrap;html=1;aspect=fixed;fillColor=none;" vertex="1" parent="1">
          <mxGeometry x="200" y="200" width="40" height="40" as="geometry" />
        </mxCell>
        <mxCell id="Op6EEN8iHbsJCU0QRmLk-2" value="\(v\)" style="whiteSpace=wrap;html=1;aspect=fixed;fillColor=none;" vertex="1" parent="1">
          <mxGeometry x="200" y="240" width="40" height="40" as="geometry" />
        </mxCell>
        <mxCell id="Op6EEN8iHbsJCU0QRmLk-3" value="\(K\)" style="rounded=0;whiteSpace=wrap;html=1;fillColor=none;" vertex="1" parent="1">
          <mxGeometry x="240" y="200" width="40" height="80" as="geometry" />
        </mxCell>
        <mxCell id="Op6EEN8iHbsJCU0QRmLk-9" style="edgeStyle=orthogonalEdgeStyle;rounded=0;orthogonalLoop=1;jettySize=auto;html=1;entryX=0;entryY=0.5;entryDx=0;entryDy=0;" edge="1" parent="1" source="Op6EEN8iHbsJCU0QRmLk-4" target="Op6EEN8iHbsJCU0QRmLk-5">
          <mxGeometry relative="1" as="geometry" />
        </mxCell>
        <mxCell id="Op6EEN8iHbsJCU0QRmLk-4" value="\(y_1\)" style="rounded=0;whiteSpace=wrap;html=1;fillColor=none;" vertex="1" parent="1">
          <mxGeometry x="280" y="200" width="40" height="80" as="geometry" />
        </mxCell>
        <mxCell id="Op6EEN8iHbsJCU0QRmLk-5" value="\(u_2\)" style="rounded=0;whiteSpace=wrap;html=1;fillColor=none;" vertex="1" parent="1">
          <mxGeometry x="400" y="200" width="40" height="80" as="geometry" />
        </mxCell>
        <mxCell id="Op6EEN8iHbsJCU0QRmLk-6" value="\(P\)" style="rounded=0;whiteSpace=wrap;html=1;fillColor=none;" vertex="1" parent="1">
          <mxGeometry x="440" y="200" width="40" height="80" as="geometry" />
        </mxCell>
        <mxCell id="Op6EEN8iHbsJCU0QRmLk-10" style="edgeStyle=orthogonalEdgeStyle;rounded=1;orthogonalLoop=1;jettySize=auto;html=1;entryX=0;entryY=0.5;entryDx=0;entryDy=0;curved=0;" edge="1" parent="1" source="Op6EEN8iHbsJCU0QRmLk-7" target="Op6EEN8iHbsJCU0QRmLk-1">
          <mxGeometry relative="1" as="geometry">
            <Array as="points">
              <mxPoint x="540" y="220" />
              <mxPoint x="540" y="180" />
              <mxPoint x="180" y="180" />
              <mxPoint x="180" y="220" />
            </Array>
          </mxGeometry>
        </mxCell>
        <mxCell id="Op6EEN8iHbsJCU0QRmLk-7" value="\(w\)" style="whiteSpace=wrap;html=1;aspect=fixed;fillColor=none;" vertex="1" parent="1">
          <mxGeometry x="480" y="200" width="40" height="40" as="geometry" />
        </mxCell>
        <mxCell id="Op6EEN8iHbsJCU0QRmLk-8" value="\(z\)" style="whiteSpace=wrap;html=1;aspect=fixed;fillColor=none;" vertex="1" parent="1">
          <mxGeometry x="480" y="240" width="40" height="40" as="geometry" />
        </mxCell>
      </root>
    </mxGraphModel>
  </diagram>
</mxfile>
